
<global>
ampeg_release=7.7
</global>

<group>
amp_veltrack=100.0
group_label=Kick_RR1
seq_length=4
seq_position=1
volume=8.0

<region>
hikey=c2
hivel=57
lokey=b1
lovel=29
pitch_keycenter=b1
sample=Drums_Kick_RR1_B-1_0001.opus
</region>

<region>
hikey=c2
hivel=84
lokey=b1
lovel=58
pitch_keycenter=b1
sample=Drums_Kick_RR1_B-1_0002.opus
</region>

<region>
hikey=c2
hivel=105
lokey=b1
lovel=85
pitch_keycenter=b1
sample=Drums_Kick_RR1_B-1_0003.opus
</region>

<region>
hikey=c2
hivel=127
lokey=b1
lovel=106
pitch_keycenter=b1
sample=Drums_Kick_RR1_B-1_0004.opus
</region>

<region>
hikey=c2
hivel=28
lokey=b1
lovel=0
pitch_keycenter=b1
sample=Drums_Kick_RR1_B-1.opus
</region>
</group>

<group>
amp_veltrack=100.0
group_label=Kick_RR2
seq_length=4
seq_position=2
volume=8.0

<region>
hikey=c2
hivel=57
lokey=b1
lovel=29
pitch_keycenter=b1
sample=Drums_Kick_RR2_B-1_0001.opus
</region>

<region>
hikey=c2
hivel=84
lokey=b1
lovel=58
pitch_keycenter=b1
sample=Drums_Kick_RR2_B-1_0002.opus
</region>

<region>
hikey=c2
hivel=105
lokey=b1
lovel=85
pitch_keycenter=b1
sample=Drums_Kick_RR2_B-1_0003.opus
</region>

<region>
hikey=c2
hivel=127
lokey=b1
lovel=106
pitch_keycenter=b1
sample=Drums_Kick_RR2_B-1_0004.opus
</region>

<region>
hikey=c2
hivel=28
lokey=b1
lovel=0
pitch_keycenter=b1
sample=Drums_Kick_RR2_B-1.opus
</region>
</group>

<group>
amp_veltrack=100.0
group_label=Kick_RR3
seq_length=4
seq_position=3
volume=8.0

<region>
hikey=c2
hivel=57
lokey=b1
lovel=29
pitch_keycenter=b1
sample=Drums_Kick_RR3_B-1_0001.opus
</region>

<region>
hikey=c2
hivel=84
lokey=b1
lovel=58
pitch_keycenter=b1
sample=Drums_Kick_RR3_B-1_0002.opus
</region>

<region>
hikey=c2
hivel=105
lokey=b1
lovel=85
pitch_keycenter=b1
sample=Drums_Kick_RR3_B-1_0003.opus
</region>

<region>
hikey=c2
hivel=127
lokey=b1
lovel=106
pitch_keycenter=b1
sample=Drums_Kick_RR3_B-1_0004.opus
</region>

<region>
hikey=c2
hivel=28
lokey=b1
lovel=0
pitch_keycenter=b1
sample=Drums_Kick_RR3_B-1.opus
</region>
</group>

<group>
amp_veltrack=100.0
group_label=Kick_RR4
seq_length=4
seq_position=4
volume=8.0

<region>
hikey=c2
hivel=57
lokey=b1
lovel=29
pitch_keycenter=b1
sample=Drums_Kick_RR4_B-1_0001.opus
</region>

<region>
hikey=c2
hivel=84
lokey=b1
lovel=58
pitch_keycenter=b1
sample=Drums_Kick_RR4_B-1_0002.opus
</region>

<region>
hikey=c2
hivel=105
lokey=b1
lovel=85
pitch_keycenter=b1
sample=Drums_Kick_RR4_B-1_0003.opus
</region>

<region>
hikey=c2
hivel=127
lokey=b1
lovel=106
pitch_keycenter=b1
sample=Drums_Kick_RR4_B-1_0004.opus
</region>

<region>
hikey=c2
hivel=28
lokey=b1
lovel=0
pitch_keycenter=b1
sample=Drums_Kick_RR4_B-1.opus
</region>
</group>

<group>
amp_veltrack=100.0
group_label=Snare_RR1
seq_length=4
seq_position=1
volume=8.0

<region>
hivel=59
key=d2
lovel=30
sample=Drums_Snare_RR1_D0_0001.opus
</region>

<region>
hivel=80
key=d2
lovel=60
sample=Drums_Snare_RR1_D0_0002.opus
</region>

<region>
hivel=108
key=d2
lovel=81
sample=Drums_Snare_RR1_D0_0003.opus
</region>

<region>
hivel=127
key=d2
lovel=109
sample=Drums_Snare_RR1_D0_0004.opus
</region>

<region>
hivel=29
key=d2
lovel=0
sample=Drums_Snare_RR1_D0.opus
</region>
</group>

<group>
amp_veltrack=100.0
group_label=Snare_RR2
seq_length=4
seq_position=2
volume=8.0

<region>
hivel=59
key=d2
lovel=30
sample=Drums_Snare_RR2_D0_0001.opus
</region>

<region>
hivel=80
key=d2
lovel=60
sample=Drums_Snare_RR2_D0_0002.opus
</region>

<region>
hivel=108
key=d2
lovel=81
sample=Drums_Snare_RR2_D0_0003.opus
</region>

<region>
hivel=127
key=d2
lovel=109
sample=Drums_Snare_RR2_D0_0004.opus
</region>

<region>
hivel=29
key=d2
lovel=0
sample=Drums_Snare_RR2_D0.opus
</region>
</group>

<group>
amp_veltrack=100.0
group_label=Snare_RR3
seq_length=4
seq_position=3
volume=8.0

<region>
hivel=59
key=d2
lovel=30
sample=Drums_Snare_RR3_D0_0001.opus
</region>

<region>
hivel=80
key=d2
lovel=60
sample=Drums_Snare_RR3_D0_0002.opus
</region>

<region>
hivel=108
key=d2
lovel=81
sample=Drums_Snare_RR3_D0_0003.opus
</region>

<region>
hivel=127
key=d2
lovel=109
sample=Drums_Snare_RR3_D0_0004.opus
</region>

<region>
hivel=29
key=d2
lovel=0
sample=Drums_Snare_RR3_D0.opus
</region>
</group>

<group>
amp_veltrack=100.0
group_label=Snare_RR4
seq_length=4
seq_position=4
volume=8.0

<region>
hivel=59
key=d2
lovel=30
sample=Drums_Snare_RR4_D0_0001.opus
</region>

<region>
hivel=80
key=d2
lovel=60
sample=Drums_Snare_RR4_D0_0002.opus
</region>

<region>
hivel=108
key=d2
lovel=81
sample=Drums_Snare_RR4_D0_0003.opus
</region>

<region>
hivel=127
key=d2
lovel=109
sample=Drums_Snare_RR4_D0_0004.opus
</region>

<region>
hivel=29
key=d2
lovel=0
sample=Drums_Snare_RR4_D0.opus
</region>
</group>

<group>
amp_veltrack=100.0
group=1
group_label=HiHats_RR1
seq_length=4
seq_position=1
volume=-3.0

<region>
hivel=60
key=f#2
lovel=30
sample=Drums_HiHats_RR1_F#0_0001.opus
volume=5
</region>

<region>
hivel=88
key=f#2
lovel=61
sample=Drums_HiHats_RR1_F#0_0002.opus
volume=5
</region>

<region>
hivel=110
key=f#2
lovel=89
sample=Drums_HiHats_RR1_F#0_0003.opus
volume=5
</region>

<region>
hivel=127
key=f#2
lovel=111
sample=Drums_HiHats_RR1_F#0_0004.opus
volume=5
</region>

<region>
hivel=29
key=f#2
lovel=0
sample=Drums_HiHats_RR1_F#0.opus
volume=5
</region>
</group>

<group>
amp_veltrack=100.0
group=1
group_label=HiHats_RR2
seq_length=4
seq_position=2
volume=-3.0

<region>
hivel=60
key=f#2
lovel=30
sample=Drums_HiHats_RR2_F#0_0001.opus
volume=5
</region>

<region>
hivel=88
key=f#2
lovel=61
sample=Drums_HiHats_RR2_F#0_0002.opus
volume=5
</region>

<region>
hivel=110
key=f#2
lovel=89
sample=Drums_HiHats_RR2_F#0_0003.opus
volume=5
</region>

<region>
hivel=127
key=f#2
lovel=111
sample=Drums_HiHats_RR2_F#0_0004.opus
volume=5
</region>

<region>
hivel=29
key=f#2
lovel=0
sample=Drums_HiHats_RR2_F#0.opus
volume=5
</region>
</group>

<group>
amp_veltrack=100.0
group=1
group_label=HIHats_RR3
seq_length=4
seq_position=3
volume=-3.0

<region>
hivel=60
key=f#2
lovel=30
sample=Drums_HiHats_RR3_F#0_0001.opus
volume=5
</region>

<region>
hivel=88
key=f#2
lovel=61
sample=Drums_HiHats_RR3_F#0_0002.opus
volume=5
</region>

<region>
hivel=110
key=f#2
lovel=89
sample=Drums_HiHats_RR3_F#0_0003.opus
volume=5
</region>

<region>
hivel=127
key=f#2
lovel=111
sample=Drums_HiHats_RR3_F#0_0004.opus
volume=5
</region>

<region>
hivel=29
key=f#2
lovel=0
sample=Drums_HiHats_RR3_F#0.opus
volume=5
</region>
</group>

<group>
amp_veltrack=100.0
group=1
group_label=HiHats_RR4
seq_length=4
seq_position=4
volume=-3.0

<region>
hivel=60
key=f#2
lovel=30
sample=Drums_HiHats_RR4_F#0_0001.opus
volume=5
</region>

<region>
hivel=88
key=f#2
lovel=61
sample=Drums_HiHats_RR4_F#0_0002.opus
volume=5
</region>

<region>
hivel=110
key=f#2
lovel=89
sample=Drums_HiHats_RR4_F#0_0003.opus
volume=5
</region>

<region>
hivel=127
key=f#2
lovel=111
sample=Drums_HiHats_RR4_F#0_0004.opus
volume=5
</region>

<region>
hivel=29
key=f#2
lovel=0
sample=Drums_HiHats_RR4_F#0.opus
volume=5
</region>
</group>

<group>
amp_veltrack=100.0
group=3
group_label=HiHats_Open_RR1
off_by=1
seq_length=4
seq_position=1
volume=-3.0

<region>
hivel=59
key=a#2
lovel=31
sample=Drums_HiHats_Open_RR1_A#0_0001.opus
volume=5
</region>

<region>
hivel=89
key=a#2
lovel=60
sample=Drums_HiHats_Open_RR1_A#0_0002.opus
volume=5
</region>

<region>
hivel=110
key=a#2
lovel=90
sample=Drums_HiHats_Open_RR1_A#0_0003.opus
volume=5
</region>

<region>
hivel=127
key=a#2
lovel=111
sample=Drums_HiHats_Open_RR1_A#0_0004.opus
volume=5
</region>

<region>
hivel=30
key=a#2
lovel=0
sample=Drums_HiHats_Open_RR1_A#0.opus
volume=5
</region>
</group>

<group>
amp_veltrack=100.0
group=3
group_label=HiHats_Open_RR2
off_by=1
seq_length=4
seq_position=2
volume=-3.0

<region>
hivel=59
key=a#2
lovel=31
sample=Drums_HiHats_Open_RR2_A#0_0001.opus
volume=5
</region>

<region>
hivel=89
key=a#2
lovel=60
sample=Drums_HiHats_Open_RR2_A#0_0002.opus
volume=5
</region>

<region>
hivel=110
key=a#2
lovel=90
sample=Drums_HiHats_Open_RR2_A#0_0003.opus
volume=5
</region>

<region>
hivel=127
key=a#2
lovel=111
sample=Drums_HiHats_Open_RR2_A#0_0004.opus
volume=5
</region>

<region>
hivel=30
key=a#2
lovel=0
sample=Drums_HiHats_Open_RR2_A#0.opus
volume=5
</region>
</group>

<group>
amp_veltrack=100.0
group=3
group_label=HiHats_Open_RR3
off_by=1
seq_length=4
seq_position=3
volume=-3.0

<region>
hivel=59
key=a#2
lovel=31
sample=Drums_HiHats_Open_RR3_A#0_0001.opus
volume=5
</region>

<region>
hivel=89
key=a#2
lovel=60
sample=Drums_HiHats_Open_RR3_A#0_0002.opus
volume=5
</region>

<region>
hivel=110
key=a#2
lovel=90
sample=Drums_HiHats_Open_RR3_A#0_0003.opus
volume=5
</region>

<region>
hivel=127
key=a#2
lovel=111
sample=Drums_HiHats_Open_RR3_A#0_0004.opus
volume=5
</region>

<region>
hivel=30
key=a#2
lovel=0
sample=Drums_HiHats_Open_RR3_A#0.opus
volume=5
</region>
</group>

<group>
amp_veltrack=100.0
group=3
group_label=HiHats_Open_RR4
off_by=1
seq_length=4
seq_position=4
volume=-3.0

<region>
hivel=59
key=a#2
lovel=31
sample=Drums_HiHats_Open_RR4_A#0_0001.opus
volume=5
</region>

<region>
hivel=89
key=a#2
lovel=60
sample=Drums_HiHats_Open_RR4_A#0_0002.opus
volume=5
</region>

<region>
hivel=110
key=a#2
lovel=90
sample=Drums_HiHats_Open_RR4_A#0_0003.opus
volume=5
</region>

<region>
hivel=127
key=a#2
lovel=111
sample=Drums_HiHats_Open_RR4_A#0_0004.opus
volume=5
</region>

<region>
hivel=30
key=a#2
lovel=0
sample=Drums_HiHats_Open_RR4_A#0.opus
volume=5
</region>
</group>

<group>
amp_veltrack=100.0
group=1
group_label=HiHats_Pedal_RR1
seq_length=2
seq_position=1
volume=-3.0

<region>
hivel=70
key=g#2
lovel=40
sample=Drums_HiHats_Pedal_RR1_G#0_0001.opus
volume=5
</region>

<region>
hivel=100
key=g#2
lovel=71
sample=Drums_HiHats_Pedal_RR1_G#0_0002.opus
volume=5
</region>

<region>
hivel=127
key=g#2
lovel=101
sample=Drums_HiHats_Pedal_RR1_G#0_0003.opus
volume=5
</region>

<region>
hivel=39
key=g#2
lovel=0
sample=Drums_HiHats_Pedal_RR1_G#0.opus
volume=5
</region>
</group>

<group>
amp_veltrack=100.0
group=1
group_label=HiHats_Pedal_RR2
seq_length=2
seq_position=2
volume=-3.0

<region>
hivel=70
key=g#2
lovel=40
sample=Drums_HiHats_Pedal_RR2_G#0_0001.opus
volume=5
</region>

<region>
hivel=100
key=g#2
lovel=71
sample=Drums_HiHats_Pedal_RR2_G#0_0002.opus
volume=5
</region>

<region>
hivel=39
key=g#2
lovel=0
sample=Drums_HiHats_Pedal_RR2_G#0.opus
volume=5
</region>

<region>
hivel=127
key=g#2
lovel=101
sample=Drums_HiHats_Pedal_RR2_G0.opus
volume=5
</region>
</group>

<group>
amp_veltrack=100.0
group_label=Snare_Sidestick_RR1
seq_length=4
seq_position=1
volume=8.0

<region>
hivel=50
key=c#2
lovel=26
sample=Drums_Snare_Sidestick_RR1_C#0_0001.opus
</region>

<region>
hivel=76
key=c#2
lovel=51
sample=Drums_Snare_Sidestick_RR1_C#0_0002.opus
</region>

<region>
hivel=101
key=c#2
lovel=77
sample=Drums_Snare_Sidestick_RR1_C#0_0003.opus
</region>

<region>
hivel=127
key=c#2
lovel=102
sample=Drums_Snare_Sidestick_RR1_C#0_0004.opus
</region>

<region>
hivel=25
key=c#2
lovel=0
sample=Drums_Snare_Sidestick_RR1_C#0.opus
</region>
</group>

<group>
amp_veltrack=100.0
group_label=Snare_Sidestick_RR2
seq_length=4
seq_position=2
volume=8.0

<region>
hivel=50
key=c#2
lovel=26
sample=Drums_Snare_Sidestick_RR2_C#0_0001.opus
</region>

<region>
hivel=76
key=c#2
lovel=51
sample=Drums_Snare_Sidestick_RR2_C#0_0002.opus
</region>

<region>
hivel=101
key=c#2
lovel=77
sample=Drums_Snare_Sidestick_RR2_C#0_0003.opus
</region>

<region>
hivel=127
key=c#2
lovel=102
sample=Drums_Snare_Sidestick_RR2_C#0_0004.opus
</region>

<region>
hivel=25
key=c#2
lovel=0
sample=Drums_Snare_Sidestick_RR2_C#0.opus
</region>
</group>

<group>
amp_veltrack=100.0
group_label=Snare_Sidestick_RR3
seq_length=4
seq_position=3
volume=8.0

<region>
hivel=50
key=c#2
lovel=26
sample=Drums_Snare_Sidestick_RR3_C#0_0001.opus
</region>

<region>
hivel=76
key=c#2
lovel=51
sample=Drums_Snare_Sidestick_RR3_C#0_0002.opus
</region>

<region>
hivel=101
key=c#2
lovel=77
sample=Drums_Snare_Sidestick_RR3_C#0_0003.opus
</region>

<region>
hivel=127
key=c#2
lovel=102
sample=Drums_Snare_Sidestick_RR3_C#0_0004.opus
</region>

<region>
hivel=25
key=c#2
lovel=0
sample=Drums_Snare_Sidestick_RR3_C#0.opus
</region>
</group>

<group>
amp_veltrack=100.0
group_label=Snare_Sidestick_RR4
seq_length=4
seq_position=4
volume=8.0

<region>
hivel=50
key=c#2
lovel=26
sample=Drums_Snare_Sidestick_RR4_C#0_0001.opus
</region>

<region>
hivel=76
key=c#2
lovel=51
sample=Drums_Snare_Sidestick_RR4_C#0_0002.opus
</region>

<region>
hivel=101
key=c#2
lovel=77
sample=Drums_Snare_Sidestick_RR4_C#0_0003.opus
</region>

<region>
hivel=127
key=c#2
lovel=102
sample=Drums_Snare_Sidestick_RR4_C#0_0004.opus
</region>

<region>
hivel=25
key=c#2
lovel=0
sample=Drums_Snare_Sidestick_RR4_C#0.opus
</region>
</group>

<group>
amp_veltrack=100.0
ampeg_release=9.4
group_label=Ride_Cymbal_RR1
seq_length=2
seq_position=1
volume=-3.0

<region>
hivel=50
key=d#3
lovel=26
sample=Drums_RideCymb_RR1_D#1_0001.opus
</region>

<region>
hivel=76
key=d#3
lovel=51
sample=Drums_RideCymb_RR1_D#1_0002.opus
</region>

<region>
hivel=101
key=d#3
lovel=77
sample=Drums_RideCymb_RR1_D#1_0003.opus
</region>

<region>
hivel=127
key=d#3
lovel=102
sample=Drums_RideCymb_RR1_D#1_0004.opus
</region>

<region>
hivel=25
key=d#3
lovel=0
sample=Drums_RideCymb_RR1_D#1.opus
</region>
</group>

<group>
amp_veltrack=100.0
ampeg_release=9.4
group_label=Ride_Cymbal_RR2
seq_length=2
seq_position=2
volume=-3.0

<region>
hivel=50
key=d#3
lovel=26
sample=Drums_RideCymb_RR2_D#1_0001.opus
</region>

<region>
hivel=76
key=d#3
lovel=51
sample=Drums_RideCymb_RR2_D#1_0002.opus
</region>

<region>
hivel=101
key=d#3
lovel=77
sample=Drums_RideCymb_RR2_D#1_0003.opus
</region>

<region>
hivel=127
key=d#3
lovel=102
sample=Drums_RideCymb_RR2_D#1_0004.opus
</region>

<region>
hivel=25
key=d#3
lovel=0
sample=Drums_RideCymb_RR2_D#1.opus
</region>
</group>

<group>
amp_veltrack=100.0
ampeg_release=9.4
group_label=Ride_Cymbal_Bell_RR1
seq_length=2
seq_position=1
volume=-3.0

<region>
hivel=50
key=f3
lovel=26
sample=Drums_RideCymb_Bell_RR1_F1_0001.opus
</region>

<region>
hivel=76
key=f3
lovel=51
sample=Drums_RideCymb_Bell_RR1_F1_0002.opus
</region>

<region>
hivel=101
key=f3
lovel=77
sample=Drums_RideCymb_Bell_RR1_F1_0003.opus
</region>

<region>
hivel=127
key=f3
lovel=102
sample=Drums_RideCymb_Bell_RR1_F1_0004.opus
</region>

<region>
hivel=25
key=f3
lovel=0
sample=Drums_RideCymb_Bell_RR1_F1.opus
</region>
</group>

<group>
amp_veltrack=100.0
ampeg_release=9.4
group_label=Ride_Cymbal_Bell_RR2
seq_length=2
seq_position=2
volume=-3.0

<region>
hivel=50
key=f3
lovel=26
sample=Drums_RideCymb_Bell_RR2_F1_0001.opus
</region>

<region>
hivel=76
key=f3
lovel=51
sample=Drums_RideCymb_Bell_RR2_F1_0002.opus
</region>

<region>
hivel=101
key=f3
lovel=77
sample=Drums_RideCymb_Bell_RR2_F1_0003.opus
</region>

<region>
hivel=127
key=f3
lovel=102
sample=Drums_RideCymb_Bell_RR2_F1_0004.opus
</region>

<region>
hivel=25
key=f3
lovel=0
sample=Drums_RideCymb_Bell_RR2_F1.opus
</region>
</group>

<group>
amp_veltrack=100.0
ampeg_release=10.0
group_label=Crash_Cymbal_RR1
seq_length=2
seq_position=1
volume=-3.0

<region>
hivel=45
key=c#3
lovel=21
sample=Drums_Crash_RR1_C#1_0001.opus
volume=5
</region>

<region>
hivel=71
key=c#3
lovel=46
sample=Drums_Crash_RR1_C#1_0002.opus
volume=5
</region>

<region>
hivel=101
key=c#3
lovel=72
sample=Drums_Crash_RR1_C#1_0003.opus
volume=5
</region>

<region>
hivel=127
key=c#3
lovel=102
sample=Drums_Crash_RR1_C#1_0004.opus
volume=5
</region>

<region>
hivel=20
key=c#3
lovel=0
sample=Drums_Crash_RR1_C#1.opus
volume=5
</region>
</group>

<group>
amp_veltrack=100.0
ampeg_release=10.0
group_label=Crash_Cymbal_RR2
seq_length=2
seq_position=2
volume=-3.0

<region>
hivel=45
key=c#3
lovel=21
sample=Drums_Crash_RR2_C#1_0001.opus
volume=5
</region>

<region>
hivel=71
key=c#3
lovel=46
sample=Drums_Crash_RR2_C#1_0002.opus
volume=5
</region>

<region>
hivel=101
key=c#3
lovel=72
sample=Drums_Crash_RR2_C#1_0003.opus
volume=5
</region>

<region>
hivel=127
key=c#3
lovel=102
sample=Drums_Crash_RR2_C#1_0004.opus
volume=5
</region>

<region>
hivel=20
key=c#3
lovel=0
sample=Drums_Crash_RR2_C#1.opus
volume=5
</region>
</group>

<group>
amp_veltrack=100.0
ampeg_release=9.4
group_label=Splash_Cymbal_RR1
seq_length=2
seq_position=1
volume=-3.0

<region>
hivel=50
key=a3
lovel=26
sample=Drums_Splash_RR1_A1_0001.opus
volume=5
</region>

<region>
hivel=76
key=a3
lovel=51
sample=Drums_Splash_RR1_A1_0002.opus
volume=5
</region>

<region>
hivel=101
key=a3
lovel=77
sample=Drums_Splash_RR1_A1_0003.opus
volume=5
</region>

<region>
hivel=127
key=a3
lovel=102
sample=Drums_Splash_RR1_A1_0004.opus
volume=5
</region>

<region>
hivel=25
key=a3
lovel=0
sample=Drums_Splash_RR1_A1.opus
volume=5
</region>
</group>

<group>
amp_veltrack=100.0
ampeg_release=9.4
group_label=Splash_Cymbal_RR2
seq_length=2
seq_position=2
volume=-3.0

<region>
hivel=50
key=a3
lovel=26
sample=Drums_Splash_RR2_A1_0001.opus
volume=5
</region>

<region>
hivel=76
key=a3
lovel=51
sample=Drums_Splash_RR2_A1_0002.opus
volume=5
</region>

<region>
hivel=101
key=a3
lovel=77
sample=Drums_Splash_RR2_A1_0003.opus
volume=5
</region>

<region>
hivel=127
key=a3
lovel=102
sample=Drums_Splash_RR2_A1_0004.opus
volume=5
</region>

<region>
hivel=25
key=a3
lovel=0
sample=Drums_Splash_RR2_A1.opus
volume=5
</region>
</group>

<group>
amp_veltrack=100.0
ampeg_release=2.1
group_label=Snare_Drags_RR1
seq_length=2
seq_position=1
volume=8.0

<region>
hivel=42
key=d#2
lovel=22
sample=Drums_SnareDrags_RR1_D#0_0001.opus
</region>

<region>
hivel=63
key=d#2
lovel=43
sample=Drums_SnareDrags_RR1_D#0_0002.opus
</region>

<region>
hivel=84
key=d#2
lovel=64
sample=Drums_SnareDrags_RR1_D#0_0003.opus
</region>

<region>
hivel=105
key=d#2
lovel=85
sample=Drums_SnareDrags_RR1_D#0_0004.opus
</region>

<region>
hivel=127
key=d#2
lovel=106
sample=Drums_SnareDrags_RR1_D#0_0005.opus
</region>

<region>
hivel=21
key=d#2
lovel=0
sample=Drums_SnareDrags_RR1_D#0.opus
</region>
</group>

<group>
amp_veltrack=100.0
ampeg_release=2.1
group_label=Snare_Drags_RR2
seq_length=2
seq_position=2
volume=8.0

<region>
hivel=42
key=d#2
lovel=22
sample=Drums_SnareDrags_RR2_D#0_0001.opus
</region>

<region>
hivel=63
key=d#2
lovel=43
sample=Drums_SnareDrags_RR2_D#0_0002.opus
</region>

<region>
hivel=84
key=d#2
lovel=64
sample=Drums_SnareDrags_RR2_D#0_0003.opus
</region>

<region>
hivel=105
key=d#2
lovel=85
sample=Drums_SnareDrags_RR2_D#0_0004.opus
</region>

<region>
hivel=127
key=d#2
lovel=106
sample=Drums_SnareDrags_RR2_D#0_0005.opus
</region>

<region>
hivel=21
key=d#2
lovel=0
sample=Drums_SnareDrags_RR2_D#0.opus
</region>
</group>

<group>
amp_veltrack=100.0
group_label=Snare_Flams_RR1
seq_length=2
seq_position=1
volume=8.0

<region>
hivel=42
key=e2
lovel=22
sample=Drums_SnareFlams_RR1_E0_0001.opus
</region>

<region>
hivel=63
key=e2
lovel=43
sample=Drums_SnareFlams_RR1_E0_0002.opus
</region>

<region>
hivel=84
key=e2
lovel=64
sample=Drums_SnareFlams_RR1_E0_0003.opus
</region>

<region>
hivel=105
key=e2
lovel=85
sample=Drums_SnareFlams_RR1_E0_0004.opus
</region>

<region>
hivel=127
key=e2
lovel=106
sample=Drums_SnareFlams_RR1_E0_0005.opus
</region>

<region>
hivel=21
key=e2
lovel=0
sample=Drums_SnareFlams_RR1_E0.opus
</region>
</group>

<group>
amp_veltrack=100.0
group_label=Snare_Flams_RR2
seq_length=2
seq_position=2
volume=8.0

<region>
hivel=42
key=e2
lovel=22
sample=Drums_SnareFlams_RR2_E0_0001.opus
</region>

<region>
hivel=63
key=e2
lovel=43
sample=Drums_SnareFlams_RR2_E0_0002.opus
</region>

<region>
hivel=84
key=e2
lovel=64
sample=Drums_SnareFlams_RR2_E0_0003.opus
</region>

<region>
hivel=105
key=e2
lovel=85
sample=Drums_SnareFlams_RR2_E0_0004.opus
</region>

<region>
hivel=127
key=e2
lovel=106
sample=Drums_SnareFlams_RR2_E0_0005.opus
</region>

<region>
hivel=21
key=e2
lovel=0
sample=Drums_SnareFlams_RR2_E0.opus
</region>
</group>

<group>
amp_veltrack=100.0
group_label=Snare_SnaresOff_RR1
seq_length=2
seq_position=1
volume=8.0

<region>
hivel=42
key=a1
lovel=22
sample=Drums_Snare_SnaresOff_RR1_A-1_0001.opus
</region>

<region>
hivel=63
key=a1
lovel=43
sample=Drums_Snare_SnaresOff_RR1_A-1_0002.opus
</region>

<region>
hivel=84
key=a1
lovel=64
sample=Drums_Snare_SnaresOff_RR1_A-1_0003.opus
</region>

<region>
hivel=105
key=a1
lovel=85
sample=Drums_Snare_SnaresOff_RR1_A-1_0004.opus
</region>

<region>
hivel=127
key=a1
lovel=106
sample=Drums_Snare_SnaresOff_RR1_A-1_0005.opus
</region>

<region>
hivel=21
key=a1
lovel=0
sample=Drums_Snare_SnaresOff_RR1_A-1.opus
</region>
</group>

<group>
amp_veltrack=100.0
group_label=Snare_SnaresOff_RR2
seq_length=2
seq_position=2
volume=8.0

<region>
hivel=42
key=a1
lovel=22
sample=Drums_Snare_SnaresOff_RR2_A-1_0001.opus
</region>

<region>
hivel=63
key=a1
lovel=43
sample=Drums_Snare_SnaresOff_RR2_A-1_0002.opus
</region>

<region>
hivel=84
key=a1
lovel=64
sample=Drums_Snare_SnaresOff_RR2_A-1_0003.opus
</region>

<region>
hivel=105
key=a1
lovel=85
sample=Drums_Snare_SnaresOff_RR2_A-1_0004.opus
</region>

<region>
hivel=127
key=a1
lovel=106
sample=Drums_Snare_SnaresOff_RR2_A-1_0005.opus
</region>

<region>
hivel=21
key=a1
lovel=0
sample=Drums_Snare_SnaresOff_RR2_A-1.opus
</region>
</group>

<group>
amp_veltrack=100.0
group_label=Snare_SnaresOff_Drag_RR1
seq_length=2
seq_position=1
volume=8.0

<region>
hivel=42
key=a#1
lovel=22
sample=Drums_Snare_SnareOff_Drag_RR1_A#-1_0001.opus
</region>

<region>
hivel=63
key=a#1
lovel=43
sample=Drums_Snare_SnareOff_Drag_RR1_A#-1_0002.opus
</region>

<region>
hivel=84
key=a#1
lovel=64
sample=Drums_Snare_SnareOff_Drag_RR1_A#-1_0003.opus
</region>

<region>
hivel=105
key=a#1
lovel=85
sample=Drums_Snare_SnareOff_Drag_RR1_A#-1_0004.opus
</region>

<region>
hivel=127
key=a#1
lovel=106
sample=Drums_Snare_SnareOff_Drag_RR1_A#-1_0005.opus
</region>

<region>
hivel=21
key=a#1
lovel=0
sample=Drums_Snare_SnareOff_Drag_RR1_A#-1.opus
</region>
</group>

<group>
amp_veltrack=100.0
group_label=Snare_SnaresOff_Drag_RR2
seq_length=2
seq_position=2
volume=8.0

<region>
hivel=42
key=a#1
lovel=22
sample=Drums_Snare_SnareOff_Drag_RR2_A#-1_0001.opus
</region>

<region>
hivel=63
key=a#1
lovel=43
sample=Drums_Snare_SnareOff_Drag_RR2_A#-1_0002.opus
</region>

<region>
hivel=84
key=a#1
lovel=64
sample=Drums_Snare_SnareOff_Drag_RR2_A#-1_0003.opus
</region>

<region>
hivel=105
key=a#1
lovel=85
sample=Drums_Snare_SnareOff_Drag_RR2_A#-1_0004.opus
</region>

<region>
hivel=127
key=a#1
lovel=106
sample=Drums_Snare_SnareOff_Drag_RR2_A#-1_0005.opus
</region>

<region>
hivel=21
key=a#1
lovel=0
sample=Drums_Snare_SnareOff_Drag_RR2_A#-1.opus
</region>
</group>

<group>
amp_veltrack=100.0
ampeg_release=0.9
group_label=Snare_Roll_F
loop_mode=loop_continuous
volume=8.0
xf_cccurve=gain
xfin_hicc1=127
xfin_locc1=85
xfout_hicc1=127
xfout_locc1=127

<region>
hivel=127
key=f2
loop_end=240764
loop_mode=loop_continuous
loop_start=54386
lovel=0
sample=Drums_SnareRoll_F_F0.opus
</region>
</group>

<group>
amp_veltrack=100.0
ampeg_release=0.9
group_label=Snare_Roll_MF
loop_mode=loop_continuous
volume=8.0
xf_cccurve=gain
xfin_hicc1=91
xfin_locc1=47
xfout_hicc1=127
xfout_locc1=100

<region>
hivel=127
key=f2
loop_end=223123
loop_mode=loop_continuous
loop_start=16491
lovel=0
sample=Drums_SnareRoll_MF_F0.opus
</region>
</group>

<group>
amp_veltrack=100.0
ampeg_release=0.9
group_label=Snare_Roll_MP
loop_mode=loop_continuous
volume=8.0
xf_cccurve=gain
xfin_hicc1=50
xfin_locc1=20
xfout_hicc1=127
xfout_locc1=80

<region>
hivel=127
key=f2
loop_end=219144
loop_mode=loop_continuous
loop_start=16016
lovel=0
sample=Drums_SnareRoll_MP_F0.opus
</region>
</group>

<group>
amp_veltrack=100.0
ampeg_release=0.9
group_label=Snare_Roll_P
loop_mode=loop_continuous
volume=8.0
xf_cccurve=gain
xfin_hicc1=34
xfout_hicc1=95
xfout_locc1=47

<region>
hivel=127
key=f2
loop_end=217425
loop_mode=loop_continuous
loop_start=24199
lovel=0
sample=Drums_SnareRoll_P_F0.opus
</region>
</group>

<group>
amp_veltrack=100.0
ampeg_release=0.9
group_label=Snare_Roll_PP
loop_mode=loop_continuous
volume=8.0
xf_cccurve=gain
xfout_hicc1=60

<region>
hivel=127
key=f2
loop_end=212515
loop_mode=loop_continuous
loop_start=41505
lovel=0
sample=Drums_SnareRoll_PP_F0.opus
</region>
</group>

<group>
amp_veltrack=100.0
group_label=Floor_Tom_RR1
seq_length=2
seq_position=1
volume=8.0

<region>
hivel=50
key=g2
lovel=26
sample=Drums_FloorTom_RR1_F0_0001.opus
volume=-1
</region>

<region>
hivel=76
key=g2
lovel=51
sample=Drums_FloorTom_RR1_F0_0002.opus
volume=-1
</region>

<region>
hivel=101
key=g2
lovel=77
sample=Drums_FloorTom_RR1_F0_0003.opus
volume=-1
</region>

<region>
hivel=127
key=g2
lovel=102
sample=Drums_FloorTom_RR1_F0_0004.opus
volume=-1
</region>

<region>
hivel=25
key=g2
lovel=0
sample=Drums_FloorTom_RR1_F0.opus
volume=-1
</region>
</group>

<group>
amp_veltrack=100.0
group_label=Floor_Tom_RR2
seq_length=2
seq_position=2
volume=8.0

<region>
hivel=50
key=g2
lovel=26
sample=Drums_FloorTom_RR2_F0_0001.opus
volume=-1
</region>

<region>
hivel=76
key=g2
lovel=51
sample=Drums_FloorTom_RR2_F0_0002.opus
volume=-1
</region>

<region>
hivel=101
key=g2
lovel=77
sample=Drums_FloorTom_RR2_F0_0003.opus
volume=-1
</region>

<region>
hivel=127
key=g2
lovel=102
sample=Drums_FloorTom_RR2_F0_0004.opus
volume=-1
</region>

<region>
hivel=25
key=g2
lovel=0
sample=Drums_FloorTom_RR2_F0.opus
volume=-1
</region>
</group>

<group>
amp_veltrack=100.0
group_label=Medium_Tom_RR1
seq_length=2
seq_position=1
volume=8.0

<region>
hivel=50
key=a2
lovel=26
sample=Drums_MedTom_RR1_G0_0001.opus
volume=-1
</region>

<region>
hivel=76
key=a2
lovel=51
sample=Drums_MedTom_RR1_G0_0002.opus
volume=-1
</region>

<region>
hivel=101
key=a2
lovel=77
sample=Drums_MedTom_RR1_G0_0003.opus
volume=-1
</region>

<region>
hivel=127
key=a2
lovel=102
sample=Drums_MedTom_RR1_G0_0004.opus
volume=-1
</region>

<region>
hivel=25
key=a2
lovel=0
sample=Drums_MedTom_RR1_G0.opus
volume=-1
</region>
</group>

<group>
amp_veltrack=100.0
group_label=Medium_Tom_RR2
seq_length=2
seq_position=2
volume=8.0

<region>
hivel=50
key=a2
lovel=26
sample=Drums_MedTom_RR2_G0_0001.opus
volume=-1
</region>

<region>
hivel=76
key=a2
lovel=51
sample=Drums_MedTom_RR2_G0_0002.opus
volume=-1
</region>

<region>
hivel=101
key=a2
lovel=77
sample=Drums_MedTom_RR2_G0_0003.opus
volume=-1
</region>

<region>
hivel=127
key=a2
lovel=102
sample=Drums_MedTom_RR2_G0_0004.opus
volume=-1
</region>

<region>
hivel=25
key=a2
lovel=0
sample=Drums_MedTom_RR2_G0.opus
volume=-1
</region>
</group>

<group>
amp_veltrack=100.0
group_label=High_Tom_RR1
seq_length=2
seq_position=1
volume=8.0

<region>
hivel=50
key=b2
lovel=26
sample=Drums_HiTom_RR1_A0_0001.opus
volume=-1
</region>

<region>
hivel=76
key=b2
lovel=51
sample=Drums_HiTom_RR1_A0_0003.opus
volume=-1
</region>

<region>
hivel=101
key=b2
lovel=77
sample=Drums_HiTom_RR1_A0_0004.opus
volume=-1
</region>

<region>
hivel=127
key=b2
lovel=102
sample=Drums_HiTom_RR1_A0_0005.opus
volume=-1
</region>

<region>
hivel=25
key=b2
lovel=0
sample=Drums_HiTom_RR1_A0.opus
volume=-1
</region>
</group>

<group>
amp_veltrack=100.0
group_label=High_Tom_RR2
seq_length=2
seq_position=2
volume=8.0

<region>
hivel=50
key=b2
lovel=26
sample=Drums_HiTom_RR2_A0_0001.opus
volume=-1
</region>

<region>
hivel=76
key=b2
lovel=51
sample=Drums_HiTom_RR2_A0_0002.opus
volume=-1
</region>

<region>
hivel=101
key=b2
lovel=77
sample=Drums_HiTom_RR2_A0_0003.opus
volume=-1
</region>

<region>
hivel=127
key=b2
lovel=102
sample=Drums_HiTom_RR2_A0_0004.opus
volume=-1
</region>

<region>
hivel=25
key=b2
lovel=0
sample=Drums_HiTom_RR2_A0.opus
volume=-1
</region>
</group>

<group>
amp_veltrack=100.0
group_label=Crash_Cymbal_Chokes
volume=-3.0

<region>
hivel=42
key=b3
lovel=22
sample=Drums_CymbalChokes_RR1_B1_0001.opus
volume=5
</region>

<region>
hivel=63
key=b3
lovel=43
sample=Drums_CymbalChokes_RR1_B1_0002.opus
volume=5
</region>

<region>
hivel=84
key=b3
lovel=64
sample=Drums_CymbalChokes_RR1_B1_0003.opus
volume=5
</region>

<region>
hivel=105
key=b3
lovel=85
sample=Drums_CymbalChokes_RR1_B1_0004.opus
volume=5
</region>

<region>
hivel=127
key=b3
lovel=106
sample=Drums_CymbalChokes_RR1_B1_0005.opus
volume=5
</region>

<region>
hivel=21
key=b3
lovel=0
sample=Drums_CymbalChokes_RR1_B1.opus
volume=5
</region>
</group>

<group>
amp_veltrack=100.0
group_label=Floor_Tom_RR1_copy
seq_length=2
seq_position=1
volume=8.0

<region>
hikey=g1
hivel=50
lokey=f1
lovel=26
pitch_keycenter=g1
sample=Drums_FloorTom_RR1_F0_0001.opus
volume=-1
</region>

<region>
hikey=g1
hivel=76
lokey=f1
lovel=51
pitch_keycenter=g1
sample=Drums_FloorTom_RR1_F0_0002.opus
volume=-1
</region>

<region>
hikey=g1
hivel=101
lokey=f1
lovel=77
pitch_keycenter=g1
sample=Drums_FloorTom_RR1_F0_0003.opus
volume=-1
</region>

<region>
hikey=g1
hivel=127
lokey=f1
lovel=102
pitch_keycenter=g1
sample=Drums_FloorTom_RR1_F0_0004.opus
volume=-1
</region>

<region>
hikey=g1
hivel=25
lokey=f1
lovel=0
pitch_keycenter=g1
sample=Drums_FloorTom_RR1_F0.opus
volume=-1
</region>
</group>

<group>
amp_veltrack=100.0
group_label=Floor_Tom_RR2_copy
seq_length=2
seq_position=2
volume=8.0

<region>
hikey=g1
hivel=50
lokey=f1
lovel=26
pitch_keycenter=g1
sample=Drums_FloorTom_RR2_F0_0001.opus
volume=-1
</region>

<region>
hikey=g1
hivel=76
lokey=f1
lovel=51
pitch_keycenter=g1
sample=Drums_FloorTom_RR2_F0_0002.opus
volume=-1
</region>

<region>
hikey=g1
hivel=101
lokey=f1
lovel=77
pitch_keycenter=g1
sample=Drums_FloorTom_RR2_F0_0003.opus
volume=-1
</region>

<region>
hikey=g1
hivel=127
lokey=f1
lovel=102
pitch_keycenter=g1
sample=Drums_FloorTom_RR2_F0_0004.opus
volume=-1
</region>

<region>
hikey=g1
hivel=25
lokey=f1
lovel=0
pitch_keycenter=g1
sample=Drums_FloorTom_RR2_F0.opus
volume=-1
</region>
</group>